<?xml version="1.0" encoding="utf-8"?>
<svg version="1.1" id="Layer_1" xmlns="http://www.w3.org/2000/svg" xmlns:xlink="http://www.w3.org/1999/xlink" x="0px"
    y="0px" viewBox="800 800 2400 2400" xml:space="preserve">
    <g>
        <path style="fill:#FFFFFF;" d="M1753.351,1920.793h119.745v119.75h-119.745V1920.793z 
         M1753.351,2093.762h119.745v119.745h-119.745V2093.762z 
         M1926.316,2093.762h119.75v119.745h-119.75V2093.762z 
         M1926.316,1920.793h119.75v119.75h-119.75V1920.793z" />

        <path style="fill:#FFFFFF;"
            d="M1448.783,2537.862v-689.981H1285.88l613.815-401.721l0.013,32.958
         l0.015-32.958l613.818,401.721h-162.901v689.981H1448.783z 
         M1899.708,1479.118l-431.338,315.237l80.815,4.318l8.031,650.588h684.983l8.037-650.588l80.81-4.318L1899.708,1479.118z" />

        <path style="fill:#FFFFFF;" d="M2512.634,1286.301c-101.626-96.738-342.968-262.513-612.133,6.652
         l444.095,86.65c-151.383,105.5-331.64,299.508-251.778,597.538l275.042-359.333
         c-8.103,95.66,34.927,215.905,179.603,354.458l45.18-406.89
         c20.712,66.283,31.88,136.785,31.88,209.896c0,388.18-314.683,702.863-702.865,702.863
         s-702.86-314.683-702.86-702.863c0-388.177,314.678-702.86,702.86-702.86
         c60.345,0,118.908,7.602,174.793,21.907c55.942-15.945,127.432-33.662,203.297-45.713
         c-122.448-61.002-260.528-95.31-406.62-95.31c-504.308,0-913.13,408.822-913.13,913.128
         c0,504.303,408.822,913.13,913.13,913.13c504.301,0,913.128-408.827,913.128-913.13
         c0-102.868-17.013-201.765-48.378-294.028l257.193,205.781
         c4.332-200.253-50.273-315.718-123.628-377.636L3340,1460.14
         c-154.275-267.203-418.908-276.93-600.558-244.493l252.752-375.288
         c-380.636,0-434.083,287.863-437.541,428.137C2536.789,1275.831,2531.772,1278.301,2512.634,1286.301" />
    </g>
</svg>